<?xml version="1.0" encoding="utf-8"?>
<svg id="master-artboard" viewBox="0 0 1195.47021484375 238.9117889404297" version="1.1" xmlns="http://www.w3.org/2000/svg" x="0px" y="0px" style="enable-background:new 0 0 1400 980;" width="1195.47021484375px" height="238.9117889404297px"><rect id="ee-background" x="0" y="0" width="1195.47021484375" height="238.9117889404297" style="fill: white; fill-opacity: 0; pointer-events: none;"/>

<path d="M683.9,698.8c-7.7,0-13.9,6.2-13.9,13.9c0,7.7,6.2,13.9,13.9,13.9s13.9-6.2,13.9-13.9C697.8,705,691.5,698.8,683.9,698.8z&#10;&#9;&#9; M683.9,718.9c-3.4,0-6.2-2.8-6.2-6.2c0-3.4,2.8-6.2,6.2-6.2s6.2,2.8,6.2,6.2C690,716.1,687.3,718.9,683.9,718.9z" transform="matrix(1, 0, 0, 1, -92.9679946899414, -594.9955444335938)"/><path d="M683.9,604.9c0,0-38.3,38.6,0,87.5C722.2,643.5,683.9,604.9,683.9,604.9z M683.9,630c0,0,16.3,16.5,0,37.3&#10;&#9;&#9;C667.5,646.4,683.9,630,683.9,630z" transform="matrix(1, 0, 0, 1, -92.9679946899414, -594.9955444335938)"/><path d="M683.9,733.5c-38.3,48.9,0,87.5,0,87.5S722.2,782.4,683.9,733.5z M683.9,758.6c16.3,20.8,0,37.3,0,37.3&#10;&#9;&#9;S667.5,779.5,683.9,758.6z" transform="matrix(1, 0, 0, 1, -92.9679946899414, -594.9955444335938)"/><path d="M591.7,657.1c0,0,13.6,52.7,75.2,44.7C644.5,643.8,591.7,657.1,591.7,657.1z M613.3,669.9c0,0,22.5-5.7,32.1,19&#10;&#9;&#9;C619.1,692.3,613.3,669.9,613.3,669.9z" transform="matrix(1, 0, 0, 1, -92.9679946899414, -594.9955444335938)"/><path d="M591.6,766.6c0,0,52.9,12.9,74.9-45.2C604.8,713.8,591.6,766.6,591.6,766.6z M613.1,753.6c0,0,5.6-22.5,31.9-19.3&#10;&#9;&#9;C635.6,759.1,613.1,753.6,613.1,753.6z" transform="matrix(1, 0, 0, 1, -92.9679946899414, -594.9955444335938)"/><path d="M704.1,701.7c61.6,8,75.2-44.7,75.2-44.7S726.6,643.8,704.1,701.7z M725.7,688.9c9.6-24.7,32.1-19,32.1-19&#10;&#9;&#9;S751.9,692.3,725.7,688.9z" transform="matrix(1, 0, 0, 1, -92.9679946899414, -594.9955444335938)"/><path d="M704.5,721.4c22,58.1,74.9,45.2,74.9,45.2S766.2,713.8,704.5,721.4z M726,734.3c26.3-3.2,31.9,19.3,31.9,19.3&#10;&#9;&#9;S735.4,759.1,726,734.3z" transform="matrix(1, 0, 0, 1, -92.9679946899414, -594.9955444335938)"/><path d="M538.3,706.4c-3.9,0-7.9,0.3-12,0.1c-45,0-104.9,0-164.9,0c-60,0-119.9,0-164.9,0c-5.6,0.2-11-0.5-16.1,0.1&#10;&#9;&#9;c-5.1,0.5-10,0.9-14.6,1.4c-9.1,0.9-17.1,1.7-23.7,2.4c-13.1,1.5-20.6,2.3-20.6,2.3s7.5,0.8,20.6,2.3c6.6,0.7,14.5,1.5,23.7,2.4&#10;&#9;&#9;c4.6,0.4,9.4,0.9,14.6,1.4c5.1,0.6,10.5-0.1,16.1,0.1c45,0,104.9,0,164.9,0c60,0,119.9,0,164.9,0c4.1-0.1,8.1,0.2,12,0.1&#10;&#9;&#9;c57.2,28.4,68.6-6.3,68.6-6.3S595.6,678,538.3,706.4z" transform="matrix(1, 0, 0, 1, -92.9679946899414, -594.9955444335938)"/><path d="M838.7,706.4c3.9,0,7.9,0.3,12,0.1c45,0,104.9,0,164.9,0c60,0,119.9,0,164.9,0c5.6,0.2,11-0.5,16.1,0.1&#10;&#9;&#9;c5.1,0.5,10,0.9,14.6,1.4c9.1,0.9,17.1,1.7,23.7,2.4c13.1,1.5,20.6,2.3,20.6,2.3s-7.5,0.8-20.6,2.3c-6.6,0.7-14.5,1.5-23.7,2.4&#10;&#9;&#9;c-4.6,0.4-9.4,0.9-14.6,1.4c-5.1,0.6-10.5-0.1-16.1,0.1c-45,0-104.9,0-164.9,0c-60,0-119.9,0-164.9,0c-4.1-0.1-8.1,0.2-12,0.1&#10;&#9;&#9;c-57.2,28.4-68.6-6.3-68.6-6.3S781.4,678,838.7,706.4z" transform="matrix(1, 0, 0, 1, -92.9679946899414, -594.9955444335938)"/><path d="M 1274.7 712.700012 A 9.2 9.2 0 0 1 1265.5 721.900012 A 9.2 9.2 0 0 1 1256.3 712.700012 A 9.2 9.2 0 0 1 1265.5 703.500012 A 9.2 9.2 0 0 1 1274.7 712.700012 Z" transform="matrix(1, 0, 0, 1, -92.9679946899414, -594.9955444335938)"/><path d="M 121.600001 712.700012 A 9.2 9.2 0 0 1 112.400002 721.900012 A 9.2 9.2 0 0 1 103.200002 712.700012 A 9.2 9.2 0 0 1 112.400002 703.500012 A 9.2 9.2 0 0 1 121.600001 712.700012 Z" transform="matrix(1, 0, 0, 1, -92.9679946899414, -594.9955444335938)"/>

</svg>